<svg width="512" height="512" xmlns="http://www.w3.org/2000/svg" data-name="Layer 1">

 <g>
  <title>Layer 1</title>
  <path fill="#ffffff" id="svg_1" d="m161.445,349.142a67.559,67.559 0 0 1 26.562,42.858l-2.642,0a6.365,6.365 0 0 0 -6.365,6.365l0,26.108a5.527,5.527 0 0 0 5.527,5.527l4.473,0l0,13l-4.309,0a5.508,5.508 0 0 0 -5.691,5.718l0,25.108a5.9,5.9 0 0 0 5.691,6.174l10.927,0l9.434,23.329a5.922,5.922 0 0 0 5.566,3.671l90.764,0a5.922,5.922 0 0 0 5.566,-3.671l9.434,-23.329l10.927,0a5.9,5.9 0 0 0 5.691,-6.174l0,-25.108a5.508,5.508 0 0 0 -5.691,-5.718l-4.309,0l0,-13l4.473,0a5.527,5.527 0 0 0 5.527,-5.527l0,-26.108a6.383,6.383 0 0 0 -6.365,-6.365l-2.618,0a67.707,67.707 0 0 1 26.231,-42.525c37.839,-28.45 59.542,-71.035 59.542,-116.834c0,-40.095 -16.4,-77.639 -46.173,-105.715c-31.017,-29.251 -73.753,-44.557 -117.25,-42.006a155.16,155.16 0 0 0 -101.926,46.338c-27.1,27.649 -42.1,63.468 -42.231,100.859c-0.165,46.294 21.425,88.947 59.235,117.025zm135.886,145.858l-82.662,0l-6.113,-15l94.888,0l-6.113,15zm23.669,-27l-130,0l0,-13l130,0l0,13zm0,-50l-73,0a6,6 0 0 0 0,12l63,0l0,13l-110,0l0,-13l5,0a6,6 0 0 0 0,-12l-15,0l0,-14l130,0l0,14zm-167.989,-278.342a143.189,143.189 0 0 1 94.06,-42.758c40.206,-2.364 79.686,11.763 108.313,38.757c27.345,25.786 42.406,60.229 42.406,96.985c0,41.992 -19.957,81.08 -54.753,107.242a79.622,79.622 0 0 0 -31.176,52.116l-111.701,0a79.468,79.468 0 0 0 -31.56,-52.492c-34.717,-25.78 -54.54,-64.907 -54.389,-107.348c0.122,-34.247 13.902,-67.098 38.8,-92.502z"/>
  <path fill="#ffffff" id="svg_2" d="m256,71.789a6,6 0 0 0 6,-6l0,-54.789a6,6 0 0 0 -12,0l0,54.789a6,6 0 0 0 6,6z"/>
  <path fill="#ffffff" id="svg_3" d="m429.956,246l54.789,0a6,6 0 0 0 0,-12l-54.789,0a6,6 0 0 0 0,12z"/>
  <path fill="#ffffff" id="svg_4" d="m27.255,246l54.789,0a6,6 0 0 0 0,-12l-54.789,0a6,6 0 1 0 0,12z"/>
  <path fill="#ffffff" id="svg_5" d="m379.005,122.739a5.986,5.986 0 0 0 4.243,-1.757l38.742,-38.742a6,6 0 0 0 -8.486,-8.485l-38.742,38.745a6,6 0 0 0 4.243,10.242l0,-0.003z"/>
  <path fill="#ffffff" id="svg_6" d="m94.253,407.491a5.986,5.986 0 0 0 4.243,-1.757l38.742,-38.742a6,6 0 0 0 -8.486,-8.485l-38.742,38.742a6,6 0 0 0 4.243,10.242z"/>
  <path fill="#ffffff" id="svg_7" d="m383.248,358.507a6,6 0 0 0 -8.486,8.485l38.738,38.742a6,6 0 0 0 8.486,-8.485l-38.738,-38.742z"/>
  <path fill="#ffffff" id="svg_8" d="m128.752,120.982a6,6 0 0 0 8.486,-8.485l-38.738,-38.742a6,6 0 0 0 -8.49,8.485l38.742,38.742z"/>
  <path fill="#ffffff" id="svg_9" d="m131.189,238l0.022,0a5.906,5.906 0 0 0 6,-5.868c0.1,-28.222 11.547,-55.33 32.227,-76.431a120.445,120.445 0 0 1 20.6,-16.8a5.992,5.992 0 1 0 -6.517,-10.056a132.648,132.648 0 0 0 -22.657,18.51c-22.881,23.346 -35.544,53.369 -35.657,84.734a5.9,5.9 0 0 0 5.982,5.911z"/>
  <path fill="#ffffff" id="svg_10" d="m202.2,131.388a6,6 0 0 0 2.521,-0.558c1.889,-0.877 3.827,-1.715 5.76,-2.491a6,6 0 1 0 -4.471,-11.135c-2.127,0.853 -4.259,1.775 -6.339,2.74a6,6 0 0 0 2.529,11.444z"/>
  <path fill="#ffffff" id="svg_11" d="m282.9,241.555a8.506,8.506 0 0 1 13.4,7.994a6,6 0 1 0 11.9,1.564a20.463,20.463 0 0 0 -10.875,-20.826a8.489,8.489 0 0 1 -0.126,-4.269a8.4,8.4 0 0 1 1.644,-3.407a6,6 0 0 0 -9.361,-7.509a20.311,20.311 0 0 0 -3.979,8.229a20.542,20.542 0 0 0 -0.5,4.841a20.171,20.171 0 0 0 -9.118,3.647a6,6 0 0 0 7.016,9.736l-0.001,0z"/>
  <path fill="#ffffff" id="svg_12" d="m319.22,220.7a6,6 0 0 0 8.484,0.1a17.282,17.282 0 0 0 2.023,-2.369a5.917,5.917 0 0 0 1.105,0.112a6,6 0 0 0 2.632,-11.395a5.3,5.3 0 0 1 -2.794,-6.066a6,6 0 0 0 -11.623,-2.985a17.275,17.275 0 0 0 1.459,12.316a5.261,5.261 0 0 1 -1.19,1.806a6,6 0 0 0 -0.096,8.481z"/>
  <path fill="#ffffff" id="svg_13" d="m285.613,186.89a17.317,17.317 0 0 0 2.872,0.764a17.586,17.586 0 0 0 0.269,1.922a17.261,17.261 0 0 0 1.806,4.934a6,6 0 1 0 10.509,-5.792a5.29,5.29 0 0 1 3.587,-7.74a5.215,5.215 0 0 1 2.352,0.057a6,6 0 1 0 2.984,-11.623a17.248,17.248 0 0 0 -18.172,6.478a5.2,5.2 0 0 1 -4.114,-1.557a6,6 0 0 0 -8.579,8.391a17.135,17.135 0 0 0 6.486,4.166z"/>
  <path fill="#ffffff" id="svg_14" d="m304.083,274.1a11.479,11.479 0 0 1 -4.783,-1.936a6,6 0 1 0 -6.881,9.836a23.42,23.42 0 0 0 16.461,4.061a23.655,23.655 0 0 0 5.1,11.308a6,6 0 1 0 9.258,-7.634a11.627,11.627 0 0 1 -2.255,-10.366c0.029,-0.092 0.055,-0.185 0.079,-0.279a11.588,11.588 0 0 1 2.931,-4.936a6,6 0 1 0 -8.48,-8.491a23.59,23.59 0 0 0 -5.132,7.7a11.594,11.594 0 0 1 -6.298,0.737z"/>
  <path fill="#ffffff" id="svg_15" d="m286.625,331.875a28.735,28.735 0 0 0 17.464,-5.945a27.921,27.921 0 0 0 12.5,2.945a28.452,28.452 0 0 0 28.411,-28.5l0,-6.7a35.969,35.969 0 0 0 11.058,-58.806a28.2,28.2 0 0 0 2.459,-3.128a27.477,27.477 0 0 0 -7.655,-38.054c-0.637,-0.423 -1.285,-0.813 -1.952,-1.181a36,36 0 0 0 -41.178,-43.132c0,-0.168 0.018,-0.334 0.018,-0.5a24.875,24.875 0 0 0 -49.75,0l0,154.5a28.639,28.639 0 0 0 28.625,28.501zm-16.625,-183a12.844,12.844 0 0 1 25.688,0a12.706,12.706 0 0 1 -1.308,5.636c-0.69,0.441 -1.354,0.9 -2.017,1.391a6,6 0 0 0 7.141,9.653a24.007,24.007 0 0 1 35.037,31.319a5.993,5.993 0 0 0 9.771,6.867a15.418,15.418 0 0 1 1.786,24.215a35.778,35.778 0 0 0 -15.1,-3.331a6,6 0 0 0 0,12a24,24 0 0 1 0,48a6,6 0 0 0 -6,6a5.9,5.9 0 0 0 5.875,6a19.112,19.112 0 0 0 2.125,-0.077l0,3.827a16.406,16.406 0 1 1 -32.812,0a5.977,5.977 0 1 0 -11.954,0a28.356,28.356 0 0 0 6.124,17.609a16.977,16.977 0 0 1 -7.737,1.891a16.623,16.623 0 0 1 -16.619,-16.5l0,-154.5z"/>
  <path fill="#ffffff" id="svg_16" d="m204.312,148.875c0,0.171 0.013,0.342 0.017,0.513a35.956,35.956 0 0 0 -41.247,43.121c-0.666,0.368 -1.322,0.758 -1.96,1.181a27.482,27.482 0 0 0 -7.67,38.055a28.32,28.32 0 0 0 2.49,3.127a35.969,35.969 0 0 0 11.058,58.806l0,6.7a28.426,28.426 0 0 0 28.375,28.5a28.054,28.054 0 0 0 12.562,-2.958a28.593,28.593 0 0 0 46.063,-22.545l0,-71.375a6,6 0 0 0 -12,0l0,71.375a16.591,16.591 0 0 1 -24.342,14.578a28.345,28.345 0 0 0 6.092,-17.578a6,6 0 0 0 -12,0a16.375,16.375 0 1 1 -32.75,0l0,-3.827a19.112,19.112 0 0 0 2.125,0.077a5.947,5.947 0 0 0 5.937,-6a6.027,6.027 0 0 0 -6.031,-6a24,24 0 1 1 -0.023,-48a6,6 0 0 0 -0.006,-12a35.782,35.782 0 0 0 -15.1,3.331a15.416,15.416 0 0 1 1.785,-24.215a5.994,5.994 0 0 0 9.771,-6.867a24,24 0 0 1 35.033,-31.319a6,6 0 0 0 7.13,-9.653c-0.665,-0.491 -1.346,-0.952 -2.037,-1.393a12.763,12.763 0 0 1 0.125,-11.567a12.91,12.91 0 0 1 24.291,5.933l0,41.125a6,6 0 0 0 12,0l0,-40.431c0,-13.844 -11.327,-25.6 -25.17,-25.442a24.832,24.832 0 0 0 -24.518,24.748z"/>
  <path fill="#ffffff" id="svg_17" d="m226.792,240.382a8.5,8.5 0 0 1 2.3,1.173a6,6 0 0 0 7.016,-9.736a20.149,20.149 0 0 0 -9.118,-3.647a20.52,20.52 0 0 0 -0.5,-4.839a20.306,20.306 0 0 0 -3.979,-8.231a6,6 0 1 0 -9.361,7.509a8.491,8.491 0 0 1 1.518,7.676a20.463,20.463 0 0 0 -10.868,20.826a6,6 0 1 0 11.9,-1.564a8.4,8.4 0 0 1 0.362,-3.766a8.511,8.511 0 0 1 10.73,-5.401z"/>
  <path fill="#ffffff" id="svg_18" d="m178.536,207.145a6,6 0 0 0 2.632,11.395a5.917,5.917 0 0 0 1.1,-0.112a17.342,17.342 0 0 0 2.032,2.372a6,6 0 0 0 8.388,-8.581a5.261,5.261 0 0 1 -1.19,-1.806a17.275,17.275 0 0 0 1.459,-12.316a6,6 0 1 0 -11.623,2.985a5.3,5.3 0 0 1 -2.798,6.063z"/>
  <path fill="#ffffff" id="svg_19" d="m210.931,188.718a6,6 0 1 0 10.509,5.792a17.261,17.261 0 0 0 1.806,-4.934a17.586,17.586 0 0 0 0.269,-1.922a17.27,17.27 0 0 0 9.358,-4.93a6,6 0 1 0 -8.579,-8.391a5.207,5.207 0 0 1 -4.114,1.557a17.248,17.248 0 0 0 -18.172,-6.478a6,6 0 1 0 2.984,11.623a5.3,5.3 0 0 1 5.939,7.683z"/>
  <path fill="#ffffff" id="svg_20" d="m188.765,289.733a6,6 0 1 0 9.258,7.634a23.657,23.657 0 0 0 5.1,-11.307a23.539,23.539 0 0 0 16.458,-4.06a6,6 0 0 0 -6.881,-9.831a11.58,11.58 0 0 1 -11.078,1.194a23.594,23.594 0 0 0 -5.132,-7.7a6,6 0 1 0 -8.48,8.491a11.588,11.588 0 0 1 2.931,4.936c0.024,0.094 0.05,0.187 0.079,0.279a11.624,11.624 0 0 1 -2.255,10.366l0,-0.002z"/>
 </g>
</svg>